<?xml version="1.0" encoding="UTF-8"?>
<svg width="1107px" height="701px" viewBox="0 0 1107 701" version="1.1" xmlns="http://www.w3.org/2000/svg" xmlns:xlink="http://www.w3.org/1999/xlink">
    <!-- Generator: Sketch 63.1 (92452) - https://sketch.com -->
    <title>Artboard</title>
    <desc>Created with Sketch.</desc>
    <g id="Artboard" stroke="none" stroke-width="1" fill="none" fill-rule="evenodd">
        <g id="noun_Keyboard_2421905" transform="translate(678.000000, 257.000000)" fill="#FFFFFF" fill-rule="nonzero">
            <path d="M18.5207547,21.1281337 L45.7874214,21.1281337 L45.7874214,48.4401114 L18.5207547,48.4401114 L18.5207547,21.1281337 Z M402.826415,0 L5.6591195,0 C2.57232704,0 0,2.57660167 0,5.66852368 L0,179.331476 C0,182.423398 2.57232704,185 5.6591195,185 L402.826415,185 C406.427673,185 409,182.423398 409,179.331476 L409,5.66852368 C409,2.57660167 406.427673,0 402.826415,0 Z M390.479245,163.871866 L324.627673,163.871866 L324.627673,136.044568 L390.479245,136.044568 L390.479245,163.871866 Z M313.823899,163.871866 L95.1761006,163.871866 L95.1761006,136.044568 C167.715723,136.044568 240.769811,136.044568 313.823899,136.044568 L313.823899,163.871866 Z M84.372327,163.871866 L18.5207547,163.871866 L18.5207547,136.044568 C40.1283019,136.044568 62.2503145,136.044568 84.372327,136.044568 L84.372327,163.871866 Z M313.823899,125.222841 L286.557233,125.222841 L286.557233,97.9108635 L313.823899,97.9108635 L313.823899,125.222841 Z M275.753459,125.222841 L247.972327,125.222841 L247.972327,97.9108635 L275.753459,97.9108635 L275.753459,125.222841 Z M237.168553,125.222841 L209.901887,125.222841 L209.901887,97.9108635 L237.168553,97.9108635 L237.168553,125.222841 Z M199.098113,125.222841 L171.316981,125.222841 L171.316981,97.9108635 L199.098113,97.9108635 L199.098113,125.222841 Z M160.513208,125.222841 L133.246541,125.222841 L133.246541,97.9108635 L160.513208,97.9108635 L160.513208,125.222841 Z M122.442767,125.222841 L95.1761006,125.222841 L95.1761006,97.9108635 L122.442767,97.9108635 L122.442767,125.222841 Z M84.372327,125.222841 L18.5207547,125.222841 L18.5207547,97.9108635 C40.1283019,97.9108635 62.2503145,97.9108635 84.372327,97.9108635 L84.372327,125.222841 Z M390.479245,125.222841 L324.627673,125.222841 L324.627673,97.9108635 L390.479245,97.9108635 L390.479245,125.222841 Z M343.148428,59.2618384 L390.479245,59.2618384 L390.479245,87.0891365 L343.148428,87.0891365 L343.148428,59.2618384 Z M18.5207547,59.2618384 L65.8515723,59.2618384 L65.8515723,87.0891365 L18.5207547,87.0891365 L18.5207547,59.2618384 Z M75.6264151,59.2618384 L103.407547,59.2618384 L103.407547,87.0891365 L75.6264151,87.0891365 L75.6264151,59.2618384 Z M305.592453,59.2618384 L332.859119,59.2618384 L332.859119,87.0891365 L305.592453,87.0891365 L305.592453,59.2618384 Z M267.007547,59.2618384 L294.788679,59.2618384 L294.788679,87.0891365 L267.007547,87.0891365 L267.007547,59.2618384 Z M228.937107,59.2618384 L256.203774,59.2618384 L256.203774,87.0891365 L228.937107,87.0891365 L228.937107,59.2618384 Z M190.866667,59.2618384 L218.133333,59.2618384 L218.133333,87.0891365 L190.866667,87.0891365 L190.866667,59.2618384 Z M152.281761,59.2618384 L180.062893,59.2618384 L180.062893,87.0891365 L152.281761,87.0891365 L152.281761,59.2618384 Z M114.211321,59.2618384 L141.477987,59.2618384 L141.477987,87.0891365 L114.211321,87.0891365 L114.211321,59.2618384 Z M362.698113,21.1281337 L390.479245,21.1281337 L390.479245,48.4401114 L362.698113,48.4401114 L362.698113,21.1281337 Z M324.627673,21.1281337 L351.89434,21.1281337 L351.89434,48.4401114 L324.627673,48.4401114 L324.627673,21.1281337 Z M286.557233,21.1281337 L313.823899,21.1281337 L313.823899,48.4401114 L286.557233,48.4401114 L286.557233,21.1281337 Z M247.972327,21.1281337 L275.753459,21.1281337 L275.753459,48.4401114 L247.972327,48.4401114 L247.972327,21.1281337 Z M209.901887,21.1281337 L237.168553,21.1281337 L237.168553,48.4401114 L209.901887,48.4401114 L209.901887,21.1281337 Z M171.316981,21.1281337 L199.098113,21.1281337 L199.098113,48.4401114 L171.316981,48.4401114 L171.316981,21.1281337 Z M133.246541,21.1281337 L160.513208,21.1281337 L160.513208,48.4401114 L133.246541,48.4401114 L133.246541,21.1281337 Z M95.1761006,21.1281337 L122.442767,21.1281337 L122.442767,48.4401114 L95.1761006,48.4401114 L95.1761006,21.1281337 Z M56.591195,21.1281337 L84.372327,21.1281337 L84.372327,48.4401114 L56.591195,48.4401114 L56.591195,21.1281337 Z" id="Shape"></path>
        </g>
        <g id="Group-2" transform="translate(68.000000, 72.000000)">
            <rect id="Rectangle" fill="#FFFFFF" x="0" y="0" width="526" height="555"></rect>
            <polygon id="Path-2" fill="#FFFFFF" points="525 219.784123 565.965749 277.5 525 334.958217"></polygon>
            <g id="Group" transform="translate(86.000000, 52.000000)" fill-rule="nonzero">
                <path d="M11.5,41 L11.5,25.15 L23.5,41 L33.85,41 L19.6,22.95 L33.85,5.65 L23.6,5.65 L11.5,21.2 L11.5,5.65 L2.95,5.65 L2.95,41 L11.5,41 Z M50.05,41.35 C52.3833333,41.35 54.5,40.9083333 56.4,40.025 C58.3,39.1416667 59.8666667,37.925 61.1,36.375 C62.3333333,34.825 63.1333333,33.0666667 63.5,31.1 L63.5,31.1 L54.45,31.1 C54.1833333,32.1 53.6333333,32.9166667 52.8,33.55 C51.9666667,34.1833333 50.9166667,34.5 49.65,34.5 C48.15,34.5 46.9166667,34.0416667 45.95,33.125 C44.9833333,32.2083333 44.45,30.7 44.35,28.6 L44.35,28.6 L63.7,28.6 C63.8666667,27.7666667 63.95,27 63.95,26.3 C63.95,23.6333333 63.375,21.275 62.225,19.225 C61.075,17.175 59.45,15.5833333 57.35,14.45 C55.25,13.3166667 52.8166667,12.75 50.05,12.75 C47.3166667,12.75 44.8833333,13.325 42.75,14.475 C40.6166667,15.625 38.9583333,17.275 37.775,19.425 C36.5916667,21.575 36,24.1166667 36,27.05 C36,29.95 36.6,32.4833333 37.8,34.65 C39,36.8166667 40.6583333,38.475 42.775,39.625 C44.8916667,40.775 47.3166667,41.35 50.05,41.35 Z M55.3,25 L44.4,25 C44.5333333,23.2 45.1166667,21.8333333 46.15,20.9 C47.1833333,19.9666667 48.4833333,19.5 50.05,19.5 C51.55,19.5 52.8083333,19.9583333 53.825,20.875 C54.8416667,21.7916667 55.3333333,23.1666667 55.3,25 L55.3,25 Z M79.85,54.3 L97.25,13.1 L87.8,13.1 L81.55,30.2 L74.85,13.1 L65.3,13.1 L77,39.95 L70.45,54.3 L79.85,54.3 Z M119.7,41 L119.7,20.3 L124.75,20.3 L124.75,13.1 L119.7,13.1 C119.766667,11.7666667 120.116667,10.8 120.75,10.2 C121.383333,9.6 122.4,9.3 123.8,9.3 L123.8,9.3 L124.75,9.35 L124.75,2 C124.35,1.96666667 123.75,1.95 122.95,1.95 C119.116667,1.95 116.191667,2.89166667 114.175,4.775 C112.158333,6.65833333 111.15,9.33333333 111.15,12.8 L111.15,12.8 L111.15,13.1 L107.8,13.1 L107.8,20.3 L111.15,20.3 L111.15,41 L119.7,41 Z M138.55,41.3 C140.65,41.3 142.491667,40.8166667 144.075,39.85 C145.658333,38.8833333 146.85,37.5833333 147.65,35.95 L147.65,35.95 L147.65,41 L156.25,41 L156.25,13.1 L147.65,13.1 L147.65,27.9 C147.65,29.9333333 147.15,31.5 146.15,32.6 C145.15,33.7 143.783333,34.25 142.05,34.25 C140.383333,34.25 139.058333,33.725 138.075,32.675 C137.091667,31.625 136.6,30.15 136.6,28.25 L136.6,28.25 L136.6,13.1 L128.1,13.1 L128.1,29.3 C128.1,33.0333333 129.041667,35.9666667 130.925,38.1 C132.808333,40.2333333 135.35,41.3 138.55,41.3 Z M170.7,41 L170.7,26.2 C170.7,24.1666667 171.208333,22.6 172.225,21.5 C173.241667,20.4 174.616667,19.85 176.35,19.85 C177.983333,19.85 179.291667,20.375 180.275,21.425 C181.258333,22.475 181.75,23.9333333 181.75,25.8 L181.75,25.8 L181.75,41 L190.3,41 L190.3,24.8 C190.3,21.0666667 189.358333,18.1333333 187.475,16 C185.591667,13.8666667 183.05,12.8 179.85,12.8 C177.716667,12.8 175.858333,13.2833333 174.275,14.25 C172.691667,15.2166667 171.5,16.5333333 170.7,18.2 L170.7,18.2 L170.7,13.1 L162.15,13.1 L162.15,41 L170.7,41 Z M208.55,41.35 C212.15,41.35 215.166667,40.3583333 217.6,38.375 C220.033333,36.3916667 221.566667,33.6666667 222.2,30.2 L222.2,30.2 L213.15,30.2 C212.883333,31.4 212.333333,32.3333333 211.5,33 C210.666667,33.6666667 209.616667,34 208.35,34 C206.85,34 205.616667,33.4083333 204.65,32.225 C203.683333,31.0416667 203.2,29.3166667 203.2,27.05 C203.2,24.7833333 203.683333,23.0583333 204.65,21.875 C205.616667,20.6916667 206.85,20.1 208.35,20.1 C209.616667,20.1 210.666667,20.4333333 211.5,21.1 C212.333333,21.7666667 212.883333,22.7 213.15,23.9 L213.15,23.9 L222.2,23.9 C221.566667,20.4333333 220.033333,17.7083333 217.6,15.725 C215.166667,13.7416667 212.15,12.75 208.55,12.75 C205.816667,12.75 203.383333,13.325 201.25,14.475 C199.116667,15.625 197.458333,17.275 196.275,19.425 C195.091667,21.575 194.5,24.1166667 194.5,27.05 C194.5,29.95 195.1,32.4833333 196.3,34.65 C197.5,36.8166667 199.158333,38.475 201.275,39.625 C203.391667,40.775 205.816667,41.35 208.55,41.35 Z M242.45,41 L242.45,33.65 L239.75,33.65 C238.683333,33.65 237.925,33.4333333 237.475,33 C237.025,32.5666667 236.8,31.8 236.8,30.7 L236.8,30.7 L236.8,20.3 L242.4,20.3 L242.4,13.1 L236.8,13.1 L236.8,6.25 L228.25,6.25 L228.25,13.1 L224.5,13.1 L224.5,20.3 L228.25,20.3 L228.25,30.55 C228.25,34.2833333 229.158333,36.9583333 230.975,38.575 C232.791667,40.1916667 235.333333,41 238.6,41 L238.6,41 L242.45,41 Z M251.55,9.7 C253.083333,9.7 254.316667,9.275 255.25,8.425 C256.183333,7.575 256.65,6.51666667 256.65,5.25 C256.65,3.95 256.183333,2.875 255.25,2.025 C254.316667,1.175 253.083333,0.75 251.55,0.75 C250.016667,0.75 248.783333,1.175 247.85,2.025 C246.916667,2.875 246.45,3.95 246.45,5.25 C246.45,6.51666667 246.916667,7.575 247.85,8.425 C248.783333,9.275 250.016667,9.7 251.55,9.7 Z M255.8,41 L255.8,13.1 L247.25,13.1 L247.25,41 L255.8,41 Z M274.75,41.35 C277.516667,41.35 279.991667,40.775 282.175,39.625 C284.358333,38.475 286.075,36.8166667 287.325,34.65 C288.575,32.4833333 289.2,29.95 289.2,27.05 C289.2,24.15 288.575,21.6166667 287.325,19.45 C286.075,17.2833333 284.358333,15.625 282.175,14.475 C279.991667,13.325 277.516667,12.75 274.75,12.75 C271.983333,12.75 269.5,13.325 267.3,14.475 C265.1,15.625 263.375,17.2833333 262.125,19.45 C260.875,21.6166667 260.25,24.15 260.25,27.05 C260.25,29.95 260.875,32.4833333 262.125,34.65 C263.375,36.8166667 265.1,38.475 267.3,39.625 C269.5,40.775 271.983333,41.35 274.75,41.35 Z M274.75,33.9 C273.116667,33.9 271.741667,33.3166667 270.625,32.15 C269.508333,30.9833333 268.95,29.2833333 268.95,27.05 C268.95,24.8166667 269.508333,23.1083333 270.625,21.925 C271.741667,20.7416667 273.116667,20.15 274.75,20.15 C276.383333,20.15 277.75,20.7416667 278.85,21.925 C279.95,23.1083333 280.5,24.8166667 280.5,27.05 C280.5,29.2833333 279.95,30.9833333 278.85,32.15 C277.75,33.3166667 276.383333,33.9 274.75,33.9 Z M302.2,41 L302.2,26.2 C302.2,24.1666667 302.708333,22.6 303.725,21.5 C304.741667,20.4 306.116667,19.85 307.85,19.85 C309.483333,19.85 310.791667,20.375 311.775,21.425 C312.758333,22.475 313.25,23.9333333 313.25,25.8 L313.25,25.8 L313.25,41 L321.8,41 L321.8,24.8 C321.8,21.0666667 320.858333,18.1333333 318.975,16 C317.091667,13.8666667 314.55,12.8 311.35,12.8 C309.216667,12.8 307.358333,13.2833333 305.775,14.25 C304.191667,15.2166667 303,16.5333333 302.2,18.2 L302.2,18.2 L302.2,13.1 L293.65,13.1 L293.65,41 L302.2,41 Z M339.6,41.35 C341.833333,41.35 343.766667,41 345.4,40.3 C347.033333,39.6 348.283333,38.6333333 349.15,37.4 C350.016667,36.1666667 350.45,34.75 350.45,33.15 C350.45,31.1833333 349.95,29.6166667 348.95,28.45 C347.95,27.2833333 346.766667,26.4416667 345.4,25.925 C344.033333,25.4083333 342.283333,24.9 340.15,24.4 C338.183333,23.9666667 336.741667,23.5333333 335.825,23.1 C334.908333,22.6666667 334.45,22.0166667 334.45,21.15 C334.45,20.3833333 334.7,19.7916667 335.2,19.375 C335.7,18.9583333 336.433333,18.75 337.4,18.75 C338.633333,18.75 339.658333,19.075 340.475,19.725 C341.291667,20.375 341.816667,21.2666667 342.05,22.4 L342.05,22.4 L350.05,22.4 C349.516667,19.5 348.191667,17.1666667 346.075,15.4 C343.958333,13.6333333 341.133333,12.75 337.6,12.75 C334.133333,12.75 331.45,13.525 329.55,15.075 C327.65,16.625 326.7,18.65 326.7,21.15 C326.7,23.0833333 327.183333,24.6083333 328.15,25.725 C329.116667,26.8416667 330.266667,27.65 331.6,28.15 C332.933333,28.65 334.633333,29.1166667 336.7,29.55 C338.766667,30.0166667 340.258333,30.4583333 341.175,30.875 C342.091667,31.2916667 342.55,31.9833333 342.55,32.95 C342.55,33.6833333 342.3,34.275 341.8,34.725 C341.3,35.175 340.566667,35.4 339.6,35.4 C338.2,35.4 337.058333,35.0833333 336.175,34.45 C335.291667,33.8166667 334.783333,32.9 334.65,31.7 L334.65,31.7 L326.4,31.7 C326.9,34.8 328.283333,37.1833333 330.55,38.85 C332.816667,40.5166667 335.833333,41.35 339.6,41.35 Z" id="Keyfunctions" fill="#2F2FA2"></path>
                <path d="M10.75,243 L10.75,207.75 L0.65,207.75 L0.65,212 L5.95,212 L5.95,243 L10.75,243 Z M53.05,242.8 L53.05,239.05 L35.15,239.05 C37.8833333,237.416667 40.5416667,235.425 43.125,233.075 C45.7083333,230.725 47.8583333,228.175 49.575,225.425 C51.2916667,222.675 52.15,219.966667 52.15,217.3 C52.15,214.066667 51.1833333,211.566667 49.25,209.8 C47.3166667,208.033333 44.7,207.15 41.4,207.15 C37.9333333,207.15 35.1,208.208333 32.9,210.325 C30.7,212.441667 29.4833333,215.466667 29.25,219.4 L29.25,219.4 L33.75,219.4 C33.8833333,216.8 34.55,214.758333 35.75,213.275 C36.95,211.791667 38.7166667,211.05 41.05,211.05 C43.3166667,211.05 44.9583333,211.658333 45.975,212.875 C46.9916667,214.091667 47.5,215.7 47.5,217.7 C47.5,220.933333 45.8,224.425 42.4,228.175 C39,231.925 34.4666667,235.7 28.8,239.5 L28.8,239.5 L28.8,242.8 L53.05,242.8 Z M82.55,243.35 C86.1833333,243.35 88.9666667,242.433333 90.9,240.6 C92.8333333,238.766667 93.8,236.4 93.8,233.5 C93.8,231.033333 93.075,229.1 91.625,227.7 C90.175,226.3 88.1666667,225.266667 85.6,224.6 L85.6,224.6 L85.6,224.3 C88.0666667,224 89.9416667,223.1 91.225,221.6 C92.5083333,220.1 93.15,218.25 93.15,216.05 C93.15,214.283333 92.7333333,212.7 91.9,211.3 C91.0666667,209.9 89.8333333,208.8 88.2,208 C86.5666667,207.2 84.6166667,206.8 82.35,206.8 C78.75,206.8 75.9083333,207.741667 73.825,209.625 C71.7416667,211.508333 70.5833333,214.116667 70.35,217.45 L70.35,217.45 L74.8,217.45 C75.0333333,215.216667 75.8333333,213.525 77.2,212.375 C78.5666667,211.225 80.25,210.65 82.25,210.65 C84.25,210.65 85.8166667,211.183333 86.95,212.25 C88.0833333,213.316667 88.65,214.75 88.65,216.55 C88.65,220.65 85.5833333,222.7 79.45,222.7 L79.45,222.7 L78.25,222.7 L78.25,226.5 L79.45,226.5 C82.6166667,226.5 85.0583333,227.075 86.775,228.225 C88.4916667,229.375 89.35,231.05 89.35,233.25 C89.35,235.083333 88.75,236.575 87.55,237.725 C86.35,238.875 84.6333333,239.45 82.4,239.45 C80.0333333,239.45 78.1583333,238.8 76.775,237.5 C75.3916667,236.2 74.55,234.45 74.25,232.25 L74.25,232.25 L69.75,232.25 C70.15,235.883333 71.475,238.641667 73.725,240.525 C75.975,242.408333 78.9166667,243.35 82.55,243.35 Z M133.75,243 L133.75,234.9 L138.95,234.9 L138.95,230.95 L133.75,230.95 L133.75,207.5 L128.85,207.5 L110.75,231.1 L110.75,234.9 L129.15,234.9 L129.15,243 L133.75,243 Z M129.45,230.95 L115.55,230.95 L129.45,213.05 L129.45,230.95 Z M168.85,243.25 C172.783333,243.25 175.766667,242.1 177.8,239.8 C179.833333,237.5 180.85,234.533333 180.85,230.9 C180.85,228.8 180.458333,226.891667 179.675,225.175 C178.891667,223.458333 177.675,222.075 176.025,221.025 C174.375,219.975 172.3,219.45 169.8,219.45 C167.933333,219.45 166.216667,219.783333 164.65,220.45 C163.083333,221.116667 161.883333,222.016667 161.05,223.15 L161.05,223.15 L161.05,211.35 L179.15,211.35 L179.15,207.3 L156.85,207.3 L156.85,227.25 L161.25,227.25 C161.916667,225.983333 162.9,224.975 164.2,224.225 C165.5,223.475 167.016667,223.1 168.75,223.1 C171.183333,223.1 173.066667,223.783333 174.4,225.15 C175.733333,226.516667 176.4,228.416667 176.4,230.85 C176.4,233.35 175.75,235.366667 174.45,236.9 C173.15,238.433333 171.216667,239.2 168.65,239.2 C166.583333,239.2 164.875,238.625 163.525,237.475 C162.175,236.325 161.316667,234.716667 160.95,232.65 L160.95,232.65 L156.45,232.65 C156.716667,235.883333 157.966667,238.458333 160.2,240.375 C162.433333,242.291667 165.316667,243.25 168.85,243.25 Z M212.1,243.35 C214.733333,243.35 216.941667,242.825 218.725,241.775 C220.508333,240.725 221.833333,239.308333 222.7,237.525 C223.566667,235.741667 224,233.75 224,231.55 C224,227.783333 223.008333,224.85 221.025,222.75 C219.041667,220.65 216.3,219.6 212.8,219.6 C210.366667,219.6 208.25,220.191667 206.45,221.375 C204.65,222.558333 203.5,224.15 203,226.15 L203,226.15 L202.95,224.3 C202.95,219.533333 203.675,216.05 205.125,213.85 C206.575,211.65 208.716667,210.55 211.55,210.55 C213.583333,210.55 215.175,211.125 216.325,212.275 C217.475,213.425 218.183333,215.05 218.45,217.15 L218.45,217.15 L222.8,217.15 C222.466667,214.083333 221.391667,211.6 219.575,209.7 C217.758333,207.8 215.166667,206.85 211.8,206.85 C207.233333,206.85 203.941667,208.425 201.925,211.575 C199.908333,214.725 198.9,219.433333 198.9,225.7 C198.9,231.133333 199.841667,235.433333 201.725,238.6 C203.608333,241.766667 207.066667,243.35 212.1,243.35 Z M212,239.4 C209.166667,239.4 207.041667,238.575 205.625,236.925 C204.208333,235.275 203.5,233.233333 203.5,230.8 C203.5,229.166667 203.9,227.775 204.7,226.625 C205.5,225.475 206.533333,224.616667 207.8,224.05 C209.066667,223.483333 210.4,223.2 211.8,223.2 C214.266667,223.2 216.2,223.908333 217.6,225.325 C219,226.741667 219.7,228.8 219.7,231.5 C219.7,234 219,235.941667 217.6,237.325 C216.2,238.708333 214.333333,239.4 212,239.4 Z M249.55,243 L262.9,211.05 L262.9,207.55 L239.8,207.55 L239.8,211.5 L258.3,211.5 L244.75,243 L249.55,243 Z M292.4,244 C296.333333,244 299.483333,243.05 301.85,241.15 C304.216667,239.25 305.4,236.633333 305.4,233.3 C305.4,231 304.75,229.066667 303.45,227.5 C302.15,225.933333 300.333333,224.833333 298,224.2 C300.166667,223.6 301.783333,222.583333 302.85,221.15 C303.916667,219.716667 304.45,218.016667 304.45,216.05 C304.45,214.316667 303.983333,212.733333 303.05,211.3 C302.116667,209.866667 300.741667,208.733333 298.925,207.9 C297.108333,207.066667 294.933333,206.65 292.4,206.65 C289.866667,206.65 287.683333,207.066667 285.85,207.9 C284.016667,208.733333 282.633333,209.866667 281.7,211.3 C280.766667,212.733333 280.3,214.316667 280.3,216.05 C280.3,218.016667 280.833333,219.716667 281.9,221.15 C282.966667,222.583333 284.583333,223.6 286.75,224.2 C284.416667,224.833333 282.608333,225.933333 281.325,227.5 C280.041667,229.066667 279.4,231 279.4,233.3 C279.4,236.633333 280.583333,239.25 282.95,241.15 C285.316667,243.05 288.466667,244 292.4,244 Z M292.4,222.95 C290.066667,222.95 288.216667,222.408333 286.85,221.325 C285.483333,220.241667 284.8,218.7 284.8,216.7 C284.8,214.7 285.491667,213.158333 286.875,212.075 C288.258333,210.991667 290.1,210.45 292.4,210.45 C294.7,210.45 296.533333,210.991667 297.9,212.075 C299.266667,213.158333 299.95,214.7 299.95,216.7 C299.95,218.7 299.275,220.241667 297.925,221.325 C296.575,222.408333 294.733333,222.95 292.4,222.95 Z M292.4,240.2 C289.766667,240.2 287.683333,239.575 286.15,238.325 C284.616667,237.075 283.85,235.316667 283.85,233.05 C283.85,230.783333 284.65,229.066667 286.25,227.9 C287.85,226.733333 289.9,226.15 292.4,226.15 C294.866667,226.15 296.9,226.733333 298.5,227.9 C300.1,229.066667 300.9,230.783333 300.9,233.05 C300.9,235.283333 300.133333,237.033333 298.6,238.3 C297.066667,239.566667 295,240.2 292.4,240.2 Z" id="12345678" fill="#F64C62"></path>
                <path d="M24.25,428.6 L24.25,424.75 L4.25,424.75 L4.25,428.6 L24.25,428.6 Z M58.5,439.45 L58.5,428.8 L69.05,428.8 L69.05,424.65 L58.5,424.65 L58.5,413.95 L54.05,413.95 L54.05,424.65 L43.55,424.65 L43.55,428.8 L54.05,428.8 L54.05,439.45 L58.5,439.45 Z" id="-+" fill="#F64C62"></path>
                <path d="M11.5,172 L11.5,157.7 L22.7,157.7 L22.7,151.2 L11.5,151.2 L11.5,143.45 L26,143.45 L26,136.65 L2.95,136.65 L2.95,172 L11.5,172 Z M34.7,140.7 C36.2333333,140.7 37.4666667,140.275 38.4,139.425 C39.3333333,138.575 39.8,137.516667 39.8,136.25 C39.8,134.95 39.3333333,133.875 38.4,133.025 C37.4666667,132.175 36.2333333,131.75 34.7,131.75 C33.1666667,131.75 31.9333333,132.175 31,133.025 C30.0666667,133.875 29.6,134.95 29.6,136.25 C29.6,137.516667 30.0666667,138.575 31,139.425 C31.9333333,140.275 33.1666667,140.7 34.7,140.7 Z M38.95,172 L38.95,144.1 L30.4,144.1 L30.4,172 L38.95,172 Z M53.4,172 L53.4,135 L44.85,135 L44.85,172 L53.4,172 Z M75.1,172 L75.1,164.65 L72.4,164.65 C71.3333333,164.65 70.575,164.433333 70.125,164 C69.675,163.566667 69.45,162.8 69.45,161.7 L69.45,161.7 L69.45,151.3 L75.05,151.3 L75.05,144.1 L69.45,144.1 L69.45,137.25 L60.9,137.25 L60.9,144.1 L57.15,144.1 L57.15,151.3 L60.9,151.3 L60.9,161.55 C60.9,165.283333 61.8083333,167.958333 63.625,169.575 C65.4416667,171.191667 67.9833333,172 71.25,172 L71.25,172 L75.1,172 Z M92.5,172.35 C94.8333333,172.35 96.95,171.908333 98.85,171.025 C100.75,170.141667 102.316667,168.925 103.55,167.375 C104.783333,165.825 105.583333,164.066667 105.95,162.1 L105.95,162.1 L96.9,162.1 C96.6333333,163.1 96.0833333,163.916667 95.25,164.55 C94.4166667,165.183333 93.3666667,165.5 92.1,165.5 C90.6,165.5 89.3666667,165.041667 88.4,164.125 C87.4333333,163.208333 86.9,161.7 86.8,159.6 L86.8,159.6 L106.15,159.6 C106.316667,158.766667 106.4,158 106.4,157.3 C106.4,154.633333 105.825,152.275 104.675,150.225 C103.525,148.175 101.9,146.583333 99.8,145.45 C97.7,144.316667 95.2666667,143.75 92.5,143.75 C89.7666667,143.75 87.3333333,144.325 85.2,145.475 C83.0666667,146.625 81.4083333,148.275 80.225,150.425 C79.0416667,152.575 78.45,155.116667 78.45,158.05 C78.45,160.95 79.05,163.483333 80.25,165.65 C81.45,167.816667 83.1083333,169.475 85.225,170.625 C87.3416667,171.775 89.7666667,172.35 92.5,172.35 Z M97.75,156 L86.85,156 C86.9833333,154.2 87.5666667,152.833333 88.6,151.9 C89.6333333,150.966667 90.9333333,150.5 92.5,150.5 C94,150.5 95.2583333,150.958333 96.275,151.875 C97.2916667,152.791667 97.7833333,154.166667 97.75,156 L97.75,156 Z M119.4,172 L119.4,159.3 C119.4,157 120.025,155.366667 121.275,154.4 C122.525,153.433333 124.283333,152.95 126.55,152.95 L126.55,152.95 L129,152.95 L129,143.8 C127.033333,143.8 125.208333,144.3 123.525,145.3 C121.841667,146.3 120.466667,147.65 119.4,149.35 L119.4,149.35 L119.4,144.1 L110.85,144.1 L110.85,172 L119.4,172 Z" id="Filter" fill="#F64C62"></path>
                <path d="M21.3,374 C25.0666667,374 28.3416667,373.25 31.125,371.75 C33.9083333,370.25 36.0416667,368.158333 37.525,365.475 C39.0083333,362.791667 39.75,359.716667 39.75,356.25 C39.75,352.783333 39.0083333,349.716667 37.525,347.05 C36.0416667,344.383333 33.9166667,342.316667 31.15,340.85 C28.3833333,339.383333 25.1,338.65 21.3,338.65 L21.3,338.65 L7.95,338.65 L7.95,374 L21.3,374 Z M20.55,366.35 L16.5,366.35 L16.5,346.15 L20.55,346.15 C23.8833333,346.15 26.475,347.033333 28.325,348.8 C30.175,350.566667 31.1,353.05 31.1,356.25 C31.1,359.45 30.175,361.933333 28.325,363.7 C26.475,365.466667 23.8833333,366.35 20.55,366.35 L20.55,366.35 Z M55.2,374.35 C57.3333333,374.35 59.1666667,373.866667 60.7,372.9 C62.2333333,371.933333 63.3666667,370.616667 64.1,368.95 L64.1,368.95 L64.1,374 L72.6,374 L72.6,346.1 L64.1,346.1 L64.1,351.15 C63.3666667,349.483333 62.2333333,348.166667 60.7,347.2 C59.1666667,346.233333 57.3333333,345.75 55.2,345.75 C52.9,345.75 50.8416667,346.325 49.025,347.475 C47.2083333,348.625 45.775,350.275 44.725,352.425 C43.675,354.575 43.15,357.116667 43.15,360.05 C43.15,362.95 43.675,365.483333 44.725,367.65 C45.775,369.816667 47.2083333,371.475 49.025,372.625 C50.8416667,373.775 52.9,374.35 55.2,374.35 Z M57.95,366.85 C56.1166667,366.85 54.6416667,366.25 53.525,365.05 C52.4083333,363.85 51.85,362.183333 51.85,360.05 C51.85,357.916667 52.4083333,356.25 53.525,355.05 C54.6416667,353.85 56.1166667,353.25 57.95,353.25 C59.75,353.25 61.225,353.858333 62.375,355.075 C63.525,356.291667 64.1,357.95 64.1,360.05 C64.1,362.116667 63.525,363.766667 62.375,365 C61.225,366.233333 59.75,366.85 57.95,366.85 Z M87.05,374 L87.05,361.3 C87.05,359 87.675,357.366667 88.925,356.4 C90.175,355.433333 91.9333333,354.95 94.2,354.95 L94.2,354.95 L96.65,354.95 L96.65,345.8 C94.6833333,345.8 92.8583333,346.3 91.175,347.3 C89.4916667,348.3 88.1166667,349.65 87.05,351.35 L87.05,351.35 L87.05,346.1 L78.5,346.1 L78.5,374 L87.05,374 Z M108.8,374 L108.8,362.15 L117.15,374 L127.45,374 L115.95,360.05 L127.2,346.1 L117.15,346.1 L108.8,357.3 L108.8,337 L100.25,337 L100.25,374 L108.8,374 Z M144.85,383.4 L158.3,326.5 L150.05,326.5 L136.6,383.4 L144.85,383.4 Z M189.95,374 L189.95,367.45 L178.55,367.45 L178.55,338.65 L170,338.65 L170,374 L189.95,374 Z M198.2,342.7 C199.733333,342.7 200.966667,342.275 201.9,341.425 C202.833333,340.575 203.3,339.516667 203.3,338.25 C203.3,336.95 202.833333,335.875 201.9,335.025 C200.966667,334.175 199.733333,333.75 198.2,333.75 C196.666667,333.75 195.433333,334.175 194.5,335.025 C193.566667,335.875 193.1,336.95 193.1,338.25 C193.1,339.516667 193.566667,340.575 194.5,341.425 C195.433333,342.275 196.666667,342.7 198.2,342.7 Z M202.45,374 L202.45,346.1 L193.9,346.1 L193.9,374 L202.45,374 Z M222.55,387.7 C225.616667,387.7 228.183333,387.083333 230.25,385.85 C232.316667,384.616667 233.85,382.958333 234.85,380.875 C235.85,378.791667 236.35,376.45 236.35,373.85 L236.35,373.85 L236.35,346.1 L227.85,346.1 L227.85,351.15 C227.116667,349.483333 225.983333,348.166667 224.45,347.2 C222.916667,346.233333 221.083333,345.75 218.95,345.75 C216.65,345.75 214.591667,346.325 212.775,347.475 C210.958333,348.625 209.525,350.275 208.475,352.425 C207.425,354.575 206.9,357.116667 206.9,360.05 C206.9,362.95 207.425,365.483333 208.475,367.65 C209.525,369.816667 210.958333,371.475 212.775,372.625 C214.591667,373.775 216.65,374.35 218.95,374.35 C221.083333,374.35 222.916667,373.866667 224.45,372.9 C225.983333,371.933333 227.116667,370.616667 227.85,368.95 L227.85,368.95 L227.85,373.85 C227.85,376.083333 227.308333,377.708333 226.225,378.725 C225.141667,379.741667 223.716667,380.25 221.95,380.25 C220.416667,380.25 219.175,379.933333 218.225,379.3 C217.275,378.666667 216.666667,377.783333 216.4,376.65 L216.4,376.65 L207.95,376.65 C208.45,380.05 209.958333,382.741667 212.475,384.725 C214.991667,386.708333 218.35,387.7 222.55,387.7 Z M221.7,366.85 C219.866667,366.85 218.391667,366.25 217.275,365.05 C216.158333,363.85 215.6,362.183333 215.6,360.05 C215.6,357.916667 216.158333,356.25 217.275,355.05 C218.391667,353.85 219.866667,353.25 221.7,353.25 C223.5,353.25 224.975,353.858333 226.125,355.075 C227.275,356.291667 227.85,357.95 227.85,360.05 C227.85,362.116667 227.275,363.766667 226.125,365 C224.975,366.233333 223.5,366.85 221.7,366.85 Z M250.8,374 L250.8,359.2 C250.8,357.166667 251.308333,355.6 252.325,354.5 C253.341667,353.4 254.716667,352.85 256.45,352.85 C258.083333,352.85 259.391667,353.375 260.375,354.425 C261.358333,355.475 261.85,356.933333 261.85,358.8 L261.85,358.8 L261.85,374 L270.4,374 L270.4,357.8 C270.4,354.066667 269.458333,351.133333 267.575,349 C265.691667,346.866667 263.15,345.8 259.95,345.8 C257.816667,345.8 255.958333,346.283333 254.375,347.25 C252.791667,348.216667 251.6,349.533333 250.8,351.2 L250.8,351.2 L250.8,337 L242.25,337 L242.25,374 L250.8,374 Z M291.85,374 L291.85,366.65 L289.15,366.65 C288.083333,366.65 287.325,366.433333 286.875,366 C286.425,365.566667 286.2,364.8 286.2,363.7 L286.2,363.7 L286.2,353.3 L291.8,353.3 L291.8,346.1 L286.2,346.1 L286.2,339.25 L277.65,339.25 L277.65,346.1 L273.9,346.1 L273.9,353.3 L277.65,353.3 L277.65,363.55 C277.65,367.283333 278.558333,369.958333 280.375,371.575 C282.191667,373.191667 284.733333,374 288,374 L288,374 L291.85,374 Z" id="Dark/Light" fill="#F64C62"></path>
            </g>
        </g>
    </g>
</svg>